<?xml version="1.0" standalone="no"?><!DOCTYPE svg PUBLIC "-//W3C//DTD SVG 1.1//EN" "http://www.w3.org/Graphics/SVG/1.1/DTD/svg11.dtd"><svg t="1639242941740" class="icon" viewBox="0 0 1024 1024" version="1.1" xmlns="http://www.w3.org/2000/svg" p-id="1906" xmlns:xlink="http://www.w3.org/1999/xlink" width="200" height="200"><defs><style type="text/css"></style></defs><path d="M969.386667 54.613333C935.253333 20.48 887.466667 0 836.266667 0s-98.986667 20.48-133.12 54.613333l-136.533334 119.466667c-3.413333 3.413333-6.826667 6.826667-6.826666 13.653333 0 3.413333 0 10.24 3.413333 13.653334l256 256c3.413333 3.413333 6.826667 3.413333 13.653333 3.413333 3.413333 0 10.24-3.413333 13.653334-6.826667l119.466666-133.12c34.133333-34.133333 54.613333-81.92 54.613334-133.12s-17.066667-98.986667-51.2-133.12zM921.6 126.293333c-6.826667 6.826667-17.066667 6.826667-23.893333 0-30.72-30.72-88.746667-30.72-119.466667 0L689.493333 204.8c-3.413333 0-6.826667 3.413333-10.24 3.413333-3.413333 0-10.24-3.413333-13.653333-6.826666-6.826667-6.826667-6.826667-17.066667 0-23.893334L750.933333 102.4c47.786667-47.786667 122.88-44.373333 170.666667 0 6.826667 6.826667 6.826667 17.066667 0 23.893333zM737.28 416.426667L696.32 375.466667c-6.826667-6.826667-17.066667-6.826667-23.893333 0L215.04 832.853333c-3.413333 3.413333-6.826667 6.826667-3.413333 13.653334s3.413333 10.24 6.826666 13.653333c51.2 47.786667 109.226667 85.333333 170.666667 112.64h6.826667c6.826667 0 10.24-3.413333 13.653333-6.826667l334.506667-525.653333c0-10.24 0-17.066667-6.826667-23.893333zM648.533333 327.68l-40.96-40.96c-6.826667-6.826667-13.653333-6.826667-20.48-3.413333L61.44 617.813333c-6.826667 3.413333-10.24 13.653333-6.826667 20.48 27.306667 61.44 64.853333 116.053333 112.64 170.666667 3.413333 3.413333 6.826667 6.826667 13.653334 6.826667 3.413333 0 10.24-3.413333 13.653333-3.413334L648.533333 351.573333c6.826667-6.826667 6.826667-17.066667 0-23.893333zM819.2 491.52l-20.48-10.24-13.653333-13.653333c-3.413333-3.413333-10.24-6.826667-13.653334-3.413334-6.826667 0-10.24 3.413333-13.653333 6.826667l-317.44 501.76c-3.413333 3.413333-3.413333 10.24 0 13.653333 3.413333 3.413333 6.826667 10.24 10.24 10.24 58.026667 20.48 119.466667 27.306667 180.906667 27.306667 6.826667 0 13.653333-3.413333 17.066666-10.24L829.44 512c3.413333-6.826667-3.413333-17.066667-10.24-20.48zM552.96 262.826667c3.413333-3.413333 6.826667-6.826667 6.826667-13.653334s0-10.24-3.413334-13.653333l-13.653333-13.653333c-6.826667-6.826667-10.24-10.24-10.24-20.48-3.413333-10.24-13.653333-13.653333-20.48-10.24L10.24 375.466667c-6.826667 3.413333-10.24 10.24-10.24 17.066666 0 61.44 10.24 122.88 27.306667 180.906667 0 3.413333 6.826667 10.24 10.24 10.24h6.826666c3.413333 0 6.826667 0 10.24-3.413333l498.346667-317.44z" fill="" p-id="1907"></path></svg>